<?xml version="1.0" standalone="no"?>
<!DOCTYPE svg PUBLIC "-//W3C//DTD SVG 20010904//EN"
 "http://www.w3.org/TR/2001/REC-SVG-20010904/DTD/svg10.dtd">
<svg version="1.0" xmlns="http://www.w3.org/2000/svg"
 width="1059.000000pt" height="1059.000000pt" viewBox="0 0 1059.000000 1059.000000"
 preserveAspectRatio="xMidYMid meet">
<metadata>
Created by potrace 1.14, written by Peter Selinger 2001-2017
</metadata>
<g transform="translate(0.000000,1059.000000) scale(0.100000,-0.100000)"
fill="#000000" stroke="none">
<path d="M5400 10570 c-9 -16 -15 -18 -30 -10 -26 14 -52 13 -107 -6 -26 -9
-52 -18 -58 -19 -23 -5 -45 -18 -45 -26 0 -14 -94 -103 -123 -116 -15 -7 -31
-21 -34 -30 -10 -28 -33 -41 -104 -63 -73 -22 -114 -25 -124 -10 -3 6 -15 10
-26 10 -16 0 -19 7 -19 43 0 23 -3 52 -6 65 -7 24 -34 31 -34 9 0 -8 -9 -22
-20 -32 -11 -10 -20 -24 -20 -30 0 -21 -29 -38 -54 -31 -19 5 -25 14 -28 39
-3 27 -8 33 -31 35 -77 9 -169 -129 -94 -140 16 -2 23 -11 25 -34 4 -39 -27
-61 -89 -66 -44 -3 -44 -3 -41 -38 2 -26 -4 -42 -23 -62 -14 -16 -32 -28 -40
-28 -17 0 -29 51 -20 90 6 27 4 30 -18 30 -16 0 -33 -10 -46 -27 -20 -26 -22
-27 -35 -10 -7 9 -11 28 -9 41 4 20 0 24 -28 28 -41 6 -119 -19 -119 -38 0 -8
-7 -14 -15 -14 -8 0 -15 -6 -15 -14 0 -21 -24 -36 -47 -30 -26 7 -36 50 -16
70 22 22 -11 30 -42 10 -13 -9 -31 -16 -39 -16 -9 0 -23 -11 -32 -24 -8 -14
-23 -27 -32 -29 -12 -3 -11 -5 5 -6 12 0 25 4 28 9 10 16 45 12 52 -6 3 -8 0
-27 -8 -40 -11 -22 -11 -27 1 -34 23 -15 74 -12 96 5 25 19 83 19 90 0 3 -8 0
-28 -7 -45 -11 -23 -20 -30 -42 -30 -15 0 -30 7 -33 15 -4 8 -15 15 -26 15
-11 0 -26 -7 -34 -15 -9 -8 -27 -15 -41 -15 -34 0 -93 -29 -123 -61 -17 -17
-41 -28 -72 -33 -49 -7 -69 -26 -61 -56 5 -19 -43 -64 -58 -54 -5 3 -9 -6 -9
-19 0 -46 -42 -108 -77 -113 -20 -3 -43 -24 -43 -40 0 -8 -15 -20 -34 -28 -27
-11 -35 -21 -41 -52 -4 -22 -15 -47 -25 -56 -10 -10 -25 -41 -34 -70 -9 -30
-24 -58 -36 -66 -14 -9 -20 -23 -20 -49 0 -36 -42 -113 -61 -113 -5 0 -9 -6
-9 -14 0 -7 -9 -25 -20 -39 -11 -14 -20 -32 -20 -41 0 -9 -6 -19 -14 -22 -8
-3 -19 -26 -26 -52 -6 -26 -18 -72 -26 -103 -8 -30 -14 -65 -14 -77 0 -11 -6
-25 -13 -29 -25 -15 -28 -42 -5 -54 18 -10 24 -8 40 11 10 12 18 28 18 36 0 7
16 16 36 20 28 5 34 10 28 23 -15 32 -17 113 -3 122 15 9 52 -8 44 -20 -2 -5
4 -19 14 -32 31 -40 35 -68 15 -104 -10 -19 -28 -38 -41 -44 -14 -6 -23 -19
-23 -32 0 -40 -41 -107 -69 -114 -30 -8 -41 -21 -41 -53 0 -18 9 -27 40 -39
38 -15 41 -18 37 -53 -2 -26 -12 -45 -36 -66 -38 -34 -50 -79 -51 -181 0 -39
-4 -75 -10 -78 -12 -7 -13 -48 -2 -59 4 -4 12 -24 17 -44 16 -55 38 -48 49 14
7 41 5 59 -8 85 -33 66 -8 173 37 156 24 -9 40 -82 30 -136 -4 -25 -8 -91 -8
-146 0 -94 -1 -101 -22 -110 -23 -10 -32 -35 -14 -35 5 0 22 -26 37 -57 14
-32 33 -62 40 -66 10 -6 12 -23 7 -70 -3 -34 -10 -65 -16 -68 -14 -10 -15
-598 0 -607 6 -4 16 -63 22 -142 7 -74 16 -157 21 -185 5 -27 14 -97 20 -155
7 -58 17 -111 23 -119 13 -15 33 -116 43 -218 7 -68 -1 -78 -40 -48 -25 19
-80 19 -98 1 -8 -7 -28 -21 -46 -30 -45 -23 -53 -45 -68 -188 -12 -108 -11
-143 1 -235 8 -59 19 -128 25 -153 5 -25 13 -61 16 -80 4 -19 13 -42 20 -51 8
-9 18 -49 24 -90 13 -102 31 -183 42 -190 5 -3 14 -39 19 -80 5 -41 13 -98 19
-128 5 -30 10 -75 10 -100 0 -52 17 -121 29 -121 5 0 12 -16 16 -36 3 -20 15
-53 26 -73 10 -20 19 -46 19 -58 0 -12 5 -23 10 -25 10 -3 30 -124 60 -358 7
-52 18 -99 24 -105 7 -5 21 -44 30 -85 10 -41 24 -80 31 -85 13 -11 35 -81 62
-200 10 -44 22 -75 34 -83 11 -7 19 -20 19 -27 0 -26 32 -95 41 -89 5 3 6 -2
3 -11 -4 -10 1 -22 15 -31 11 -8 21 -22 21 -30 0 -9 12 -28 28 -43 66 -66 87
-166 53 -255 -11 -31 -21 -68 -21 -81 0 -13 -6 -28 -14 -32 -7 -4 -26 -48 -41
-98 -15 -49 -32 -96 -37 -102 -6 -7 -21 -50 -34 -94 -13 -45 -31 -90 -39 -99
-8 -9 -15 -28 -15 -42 0 -28 -28 -58 -53 -58 -9 0 -17 -4 -17 -10 0 -5 -17
-12 -37 -15 -61 -10 -92 -26 -126 -62 -18 -19 -43 -39 -55 -44 -13 -5 -26 -18
-29 -28 -2 -10 -17 -24 -31 -31 -15 -6 -40 -18 -55 -26 -16 -8 -34 -14 -40
-14 -7 0 -17 -8 -24 -19 -11 -17 -94 -51 -127 -51 -9 0 -16 -6 -16 -14 0 -7
-8 -16 -17 -19 -10 -3 -58 -17 -108 -32 -49 -15 -96 -32 -103 -37 -13 -11
-172 -47 -211 -48 -13 0 -29 -6 -35 -13 -6 -8 -63 -26 -126 -41 -63 -15 -128
-34 -145 -41 -16 -8 -59 -19 -95 -24 -110 -18 -175 -34 -185 -47 -9 -11 -131
-41 -245 -61 -19 -4 -41 -14 -50 -24 -8 -9 -46 -25 -85 -35 -38 -10 -73 -23
-77 -28 -4 -6 -36 -16 -70 -22 -134 -24 -225 -46 -263 -63 -57 -26 -190 -49
-339 -60 -71 -6 -132 -15 -136 -20 -3 -6 -28 -15 -56 -21 -131 -26 -188 -40
-193 -48 -3 -5 -19 -12 -36 -15 -16 -2 -74 -17 -129 -31 -54 -14 -105 -26
-113 -26 -8 0 -21 -7 -29 -15 -9 -8 -26 -15 -40 -15 l-24 0 0 -675 0 -675
5295 0 5295 0 0 633 0 634 -39 13 c-22 7 -42 18 -45 25 -2 7 -26 18 -52 24
-26 7 -60 23 -76 36 -15 13 -42 26 -60 30 -18 3 -44 10 -58 15 -14 5 -46 11
-72 15 -25 3 -56 15 -69 26 -12 11 -34 22 -48 25 -14 3 -33 8 -41 11 -8 2 -37
9 -64 14 -27 5 -58 16 -67 25 -13 12 -52 18 -146 24 -180 12 -314 35 -325 54
-5 9 -18 16 -28 16 -11 0 -39 4 -62 10 -151 34 -180 40 -206 40 -16 0 -35 6
-41 14 -7 8 -33 16 -59 19 -87 9 -204 36 -220 50 -10 8 -53 20 -97 26 -100 14
-269 53 -273 63 -2 5 -12 8 -22 8 -9 0 -33 6 -51 14 -19 8 -63 17 -99 21 -36
4 -72 13 -80 20 -8 7 -51 18 -95 24 -87 13 -171 38 -195 57 -8 7 -70 22 -138
33 -68 10 -134 27 -147 35 -13 9 -37 16 -54 16 -16 0 -57 9 -92 19 -35 11 -92
22 -126 26 -39 4 -64 12 -67 21 -3 8 -13 14 -23 14 -29 0 -124 38 -137 54 -29
39 -131 56 -263 45 -91 -7 -109 -6 -131 9 l-25 16 7 211 c4 121 11 211 16 213
6 2 10 34 10 70 0 102 32 193 88 252 72 76 89 96 102 124 8 15 25 32 37 37 13
5 23 15 23 23 0 18 35 71 68 104 12 12 25 36 29 53 3 16 14 34 24 40 11 5 19
16 19 24 0 7 6 26 14 42 8 15 20 46 26 68 7 22 23 54 35 70 13 17 26 46 30 65
4 19 17 53 30 75 12 22 33 81 45 130 13 50 28 95 35 100 22 18 35 53 41 110 5
37 14 63 26 74 10 8 18 22 18 31 0 22 38 171 45 179 4 3 30 11 58 16 46 9 54
14 74 50 12 22 22 48 22 58 1 9 8 17 17 17 35 0 62 132 67 330 2 91 5 108 23
126 12 12 24 39 27 61 4 22 15 51 25 64 11 13 32 64 48 113 16 49 33 94 39
100 15 16 31 71 46 151 7 39 18 77 26 86 15 18 19 219 4 219 -10 0 -15 23 -26
100 -3 29 -15 56 -31 73 -22 24 -32 27 -84 27 -44 0 -60 -4 -60 -14 0 -18 -42
-29 -52 -13 -14 21 3 71 31 97 18 16 34 46 44 84 9 33 21 62 26 65 5 3 12 29
16 56 3 28 13 80 21 117 7 36 18 98 24 137 5 40 16 82 24 94 13 19 30 108 42
217 9 86 16 115 27 122 16 10 17 588 1 609 -10 12 -20 101 -40 364 -7 89 5
122 48 133 21 5 38 18 46 35 7 15 17 27 23 27 19 0 51 43 56 76 3 19 8 32 11
29 6 -6 28 50 42 105 5 19 14 82 20 140 6 58 16 108 22 111 6 4 14 24 18 45 4
22 13 64 20 94 15 70 15 343 0 435 -6 39 -15 98 -19 133 -4 35 -12 67 -18 70
-6 4 -26 54 -46 112 -29 87 -43 113 -80 151 -34 35 -42 50 -35 62 6 12 1 25
-22 48 -32 35 -35 41 -21 67 5 10 5 42 -1 77 -7 49 -15 64 -38 83 -17 13 -30
33 -30 45 -1 25 -22 57 -39 57 -6 0 -11 8 -11 18 -1 18 -54 82 -69 82 -5 0
-18 11 -29 25 -11 14 -27 25 -36 25 -8 0 -20 9 -26 21 -7 11 -27 27 -45 35
-21 9 -35 22 -37 36 -2 16 -14 25 -44 34 -51 15 -86 33 -99 51 -7 9 -47 17
-120 24 -176 16 -170 13 -204 69 -17 27 -40 59 -51 70 -10 10 -22 31 -26 45
l-6 25 -309 0 c-261 0 -309 -2 -309 -14 0 -18 -54 -46 -87 -46 -13 0 -34 -11
-46 -24 -21 -23 -35 -26 -155 -42 -58 -8 -72 6 -72 72 l0 54 -335 0 c-325 0
-335 -1 -345 -20z m1285 -30 c0 -10 -12 -16 -32 -18 -32 -3 -45 13 -26 32 13
12 58 2 58 -14z m-2150 -230 c0 -10 -12 -16 -32 -18 -35 -3 -41 6 -21 26 17
17 53 11 53 -8z m-1224 -1082 c-1 -5 -1 -17 -1 -28 0 -23 -28 -27 -36 -5 -9
22 4 47 21 43 9 -2 16 -6 16 -10z m-94 -200 c18 -29 -15 -92 -43 -81 -19 7
-18 52 3 75 19 21 29 23 40 6z m1897 -473 c6 -24 8 -25 35 -11 32 17 91 24
108 13 6 -4 14 -3 18 3 11 18 23 11 34 -20 9 -26 15 -30 47 -30 21 0 53 -5 71
-12 27 -10 38 -10 54 0 16 10 26 9 59 -8 21 -11 46 -20 54 -20 8 0 27 -10 43
-23 27 -22 33 -23 152 -17 87 3 126 9 129 18 5 16 69 16 75 -2 9 -23 90 -31
215 -20 48 4 77 2 86 -5 26 -21 127 -41 211 -41 72 0 86 -3 94 -19 8 -14 27
-20 81 -25 68 -7 70 -8 70 -35 0 -26 6 -30 63 -51 34 -12 67 -28 72 -35 6 -7
28 -22 49 -33 27 -14 48 -38 68 -73 15 -29 28 -57 28 -63 0 -7 10 -12 22 -13
23 -2 59 -36 71 -67 6 -16 5 -17 -7 -7 -23 19 -36 4 -36 -42 0 -60 10 -87 30
-87 22 0 39 -20 49 -57 4 -15 17 -32 29 -38 13 -5 25 -21 28 -35 17 -79 54
-135 100 -152 45 -16 66 -57 68 -134 2 -53 6 -68 26 -86 l23 -22 -5 42 c-7 48
7 66 22 28 5 -14 19 -31 30 -38 12 -7 30 -28 41 -45 12 -18 26 -33 33 -33 12
0 35 -73 57 -180 5 -24 16 -48 24 -53 10 -5 15 -24 15 -61 0 -45 -3 -54 -20
-59 -28 -7 -25 -28 9 -63 35 -35 41 -68 31 -160 -4 -38 -3 -116 3 -174 5 -58
9 -127 8 -155 -2 -73 -32 -268 -42 -281 -5 -6 -14 -63 -19 -125 -6 -63 -15
-145 -20 -184 -5 -38 -14 -178 -20 -310 -12 -265 -14 -291 -28 -308 -10 -13
-24 -84 -43 -212 -6 -44 -15 -83 -21 -86 -8 -5 -22 -84 -65 -369 -3 -19 -11
-42 -18 -50 -7 -8 -22 -69 -35 -135 -13 -66 -29 -127 -36 -136 -14 -15 -48
-127 -61 -197 -3 -19 -12 -36 -19 -39 -8 -3 -14 -15 -14 -27 -1 -11 -7 -32
-15 -46 -8 -14 -14 -35 -15 -47 0 -12 -7 -29 -15 -37 -9 -9 -31 -59 -49 -112
-18 -53 -38 -99 -44 -103 -5 -3 -18 -26 -28 -51 -9 -25 -22 -50 -29 -55 -7 -6
-24 -36 -38 -67 -14 -31 -36 -65 -48 -77 -23 -21 -38 -45 -63 -98 -8 -18 -21
-33 -29 -33 -8 0 -22 -15 -31 -34 -9 -18 -27 -41 -41 -50 -14 -9 -25 -23 -25
-32 0 -15 -34 -56 -102 -125 -21 -21 -38 -42 -38 -46 0 -17 -134 -146 -195
-188 -19 -12 -32 -25 -29 -28 3 -3 -9 -8 -27 -12 -18 -4 -40 -17 -50 -28 -15
-19 -19 -20 -34 -7 -14 11 -19 12 -22 3 -3 -9 -18 -11 -47 -7 -39 6 -45 3 -85
-34 -24 -22 -48 -50 -55 -63 -18 -37 -45 -47 -61 -25 -19 25 -27 16 -30 -30
-1 -19 -7 -40 -12 -45 -16 -16 -61 7 -65 33 -2 12 -11 24 -20 26 -15 3 -18 -4
-18 -33 0 -36 0 -36 -37 -33 -28 2 -41 9 -48 26 -15 33 -39 29 -30 -5 4 -16 7
-41 8 -58 2 -26 -2 -30 -25 -33 -22 -3 -30 4 -49 37 -23 41 -45 51 -66 30 -7
-7 -19 -9 -27 -6 -9 4 -20 6 -24 6 -4 0 -9 10 -12 22 -3 12 -15 28 -26 36
l-21 14 18 -53 c21 -61 24 -88 8 -88 -17 0 -52 22 -69 43 -21 25 -40 15 -40
-23 0 -37 -15 -41 -64 -17 -25 12 -51 17 -72 14 -26 -4 -36 -1 -48 16 -15 21
-16 22 -30 3 -9 -10 -17 -24 -19 -30 -8 -22 -42 10 -45 43 -4 39 -32 42 -60 6
-16 -20 -21 -22 -26 -10 -8 22 -48 18 -111 -10 -63 -28 -89 -24 -82 11 4 23
-3 28 -30 25 -7 -1 -13 2 -14 6 -2 20 -8 45 -12 49 -9 9 -35 -8 -40 -27 -8
-28 -58 -22 -72 8 -7 17 -15 21 -33 16 -16 -4 -29 1 -43 16 -36 38 -99 25 -99
-20 0 -33 -16 -39 -25 -10 -3 11 -12 22 -20 25 -8 3 -15 17 -15 31 0 30 -15
33 -30 4 -15 -26 -43 -21 -50 11 -4 15 -15 26 -30 30 -14 3 -30 17 -37 30 -7
14 -13 21 -13 15 0 -5 -7 -2 -15 9 -8 10 -21 16 -29 13 -9 -4 -16 1 -18 11 -2
10 -13 17 -27 17 -17 0 -30 10 -44 35 -10 19 -23 37 -28 38 -5 2 -9 7 -9 11 0
5 -16 25 -35 45 -19 21 -35 44 -35 52 0 8 -5 14 -11 14 -15 0 -48 42 -49 62 0
10 -11 25 -25 34 -14 9 -32 32 -40 50 -7 18 -23 37 -34 44 -12 6 -21 17 -21
24 0 8 -6 19 -14 25 -8 7 -18 26 -21 42 -4 16 -17 37 -30 45 -13 9 -29 30 -34
47 -6 18 -27 54 -46 81 -19 27 -35 56 -35 63 0 8 -15 38 -34 66 -18 29 -39 71
-46 92 -7 22 -18 45 -24 50 -11 9 -66 168 -66 190 0 5 -6 16 -14 24 -13 14
-46 136 -71 259 -4 17 -10 32 -15 32 -9 0 -20 48 -45 210 -9 58 -21 110 -25
115 -29 36 -55 705 -43 1100 4 149 6 452 5 675 -3 316 0 437 12 549 9 79 20
149 26 156 14 17 29 66 40 134 8 45 7 58 -6 72 -22 24 0 146 31 174 36 33 126
176 132 209 6 41 -12 87 -37 93 -24 6 -26 28 -5 37 8 3 15 12 15 21 0 24 48
95 65 95 22 0 45 51 32 72 -8 12 -6 25 8 52 11 20 24 35 30 35 28 -3 35 3 35
31 0 32 9 37 40 18 16 -10 22 -9 37 8 10 12 28 26 41 33 13 7 22 21 22 35 0
26 25 52 55 58 11 2 21 11 23 21 3 15 -1 17 -23 11 -34 -8 -31 15 4 32 12 6
29 21 37 32 8 11 24 22 36 24 13 2 27 13 33 24 22 44 37 54 82 54 37 0 50 5
73 30 16 17 50 38 77 46 26 8 80 30 118 49 39 19 85 39 103 46 19 7 40 19 48
27 39 39 185 67 211 41 16 -16 69 6 101 40 24 26 26 26 169 34 29 2 56 6 59
10 16 16 42 6 48 -18z m2046 -647 c0 -10 -4 -18 -10 -18 -5 0 -10 15 -10 33 0
24 3 28 10 17 5 -8 10 -23 10 -32z m-3910 -1868 c31 -17 42 -178 13 -188 -7
-2 -13 3 -13 12 0 9 -5 16 -10 16 -6 0 -24 10 -40 21 -28 21 -38 22 -112 3
-27 -6 -28 -5 -28 35 0 28 5 44 15 47 8 4 15 12 15 19 0 8 12 23 28 35 22 18
35 21 70 16 24 -3 51 -10 62 -16z m4611 -151 c22 -16 29 -28 29 -55 0 -24 -5
-34 -15 -34 -8 0 -15 -5 -15 -12 0 -6 -3 -9 -6 -5 -6 6 -43 -12 -91 -43 -13
-8 -23 -20 -23 -27 0 -7 -7 -13 -15 -13 -8 0 -20 -9 -27 -20 -22 -34 -38 -24
-38 23 0 68 17 109 65 160 52 54 88 61 136 26z m-4681 -57 c13 -10 23 -33 27
-59 4 -28 11 -43 23 -46 14 -4 18 -21 23 -103 4 -55 7 -139 7 -188 l0 -89 -25
27 c-14 15 -25 38 -25 52 0 13 -5 24 -11 24 -8 0 -10 -18 -6 -58 9 -82 15 -95
43 -89 20 4 24 0 24 -22 -1 -42 -20 -115 -33 -123 -9 -6 -8 -12 4 -21 9 -6 17
-19 17 -27 9 -72 22 -324 20 -360 l-3 -45 -8 50 c-4 28 -12 73 -17 100 -20 96
-41 210 -50 270 -20 135 -33 201 -43 220 -12 24 -46 189 -47 227 0 15 -7 33
-15 41 -19 19 -34 121 -26 177 5 41 9 45 34 46 15 1 30 4 34 8 11 11 30 7 53
-12z m4708 -154 c2 -36 -3 -70 -12 -90 -8 -18 -18 -58 -22 -88 -10 -84 -52
-242 -69 -260 -8 -9 -15 -21 -15 -27 0 -38 -39 -123 -71 -155 -36 -35 -38 -36
-41 -15 -2 12 0 45 5 72 5 28 10 61 12 75 2 14 15 34 29 45 14 12 26 25 26 30
0 5 10 19 22 32 19 21 23 37 26 121 3 97 -5 131 -28 117 -8 -5 -11 -33 -10
-84 4 -131 2 -145 -22 -156 -13 -6 -29 -23 -36 -38 -10 -20 -20 -27 -35 -25
-20 3 -22 9 -22 66 0 35 5 66 11 70 6 4 13 39 16 79 4 53 12 83 32 117 15 25
31 46 36 46 5 0 17 16 26 36 10 20 26 39 35 41 10 3 25 16 34 30 12 18 24 23
43 21 25 -3 27 -6 30 -60z m-281 -643 c-5 -51 -17 -55 -17 -7 0 23 5 42 10 42
6 0 9 -15 7 -35z m54 -294 c-7 -52 -18 -102 -25 -111 -7 -8 -18 -30 -24 -48
-13 -38 -47 -89 -77 -114 -36 -31 -78 -19 -49 13 11 13 23 66 36 171 12 90 26
159 34 169 8 8 14 21 14 27 0 7 11 12 24 12 14 0 28 5 31 10 4 6 10 8 15 5 5
-3 12 0 17 7 14 22 15 -40 4 -141z m-3851 -1675 c0 -7 14 -28 30 -46 17 -18
30 -39 30 -46 0 -6 14 -26 30 -44 17 -18 30 -35 30 -39 0 -4 25 -38 55 -76 30
-38 55 -78 55 -87 0 -10 11 -23 25 -28 14 -5 25 -16 25 -24 0 -8 16 -30 35
-49 19 -19 35 -38 35 -44 0 -5 9 -18 20 -28 11 -10 20 -24 20 -31 0 -7 8 -15
18 -18 18 -6 62 -65 62 -83 0 -6 9 -13 20 -16 11 -3 24 -16 29 -29 5 -13 25
-36 45 -52 20 -15 36 -33 36 -41 0 -8 17 -27 38 -42 20 -15 41 -34 45 -40 4
-7 16 -13 25 -13 10 0 31 -12 48 -28 29 -26 164 -92 189 -92 7 0 18 -6 24 -14
6 -8 26 -16 44 -19 60 -10 178 -45 192 -57 8 -7 66 -17 129 -23 136 -13 332 4
381 33 17 10 63 24 102 30 53 10 74 18 78 30 5 17 93 60 122 60 17 0 62 32
107 76 17 17 51 42 76 56 25 14 55 40 68 57 12 17 29 31 37 31 7 0 24 13 37
28 13 15 36 34 52 42 15 8 32 25 37 37 5 13 16 23 25 23 10 0 34 18 55 40 21
22 40 40 43 40 3 0 16 10 28 23 73 69 151 138 173 153 14 9 25 20 25 24 0 12
57 70 69 70 6 0 11 7 11 15 0 8 5 15 11 15 7 0 9 -9 5 -22 -3 -13 -9 -58 -13
-101 -3 -47 -12 -84 -20 -93 -11 -11 -13 -35 -9 -106 12 -228 43 -471 58 -462
4 3 8 16 8 30 0 13 4 24 9 24 5 0 14 14 20 31 11 31 19 31 51 2 8 -8 36 -27
61 -42 l46 -29 14 -83 c21 -129 18 -399 -5 -479 -10 -36 -25 -70 -32 -76 -7
-6 -22 -32 -33 -57 -11 -26 -26 -47 -34 -47 -7 0 -21 -18 -30 -39 -10 -21 -56
-77 -102 -123 -47 -45 -85 -89 -85 -96 0 -7 -8 -15 -17 -19 -10 -3 -54 -42
-98 -86 -44 -43 -93 -86 -110 -94 -16 -9 -42 -29 -56 -44 -15 -16 -34 -29 -42
-29 -9 0 -24 -11 -34 -24 -14 -19 -48 -32 -158 -61 -276 -72 -330 -88 -335
-96 -7 -11 -98 -34 -193 -49 -146 -24 -574 12 -597 50 -4 7 -25 16 -46 20 -91
20 -128 32 -138 45 -6 8 -51 28 -100 44 -49 16 -93 36 -98 45 -4 8 -25 20 -46
27 -20 6 -55 24 -77 39 -22 15 -57 35 -76 43 -20 8 -43 23 -50 34 -8 10 -39
29 -69 43 -30 13 -65 37 -78 52 -13 15 -30 28 -38 28 -8 0 -24 11 -36 25 -12
14 -26 25 -30 25 -14 0 -79 51 -106 83 -13 15 -28 27 -33 27 -6 0 -27 17 -48
38 -21 20 -59 55 -84 77 -26 22 -56 55 -68 73 -12 19 -32 38 -45 42 -13 5 -24
15 -24 22 -1 17 -35 58 -49 58 -6 0 -11 5 -11 12 0 6 -11 26 -25 44 -14 18
-25 40 -25 48 0 9 -6 16 -13 16 -13 0 -28 25 -61 101 -9 20 -22 42 -30 48 -8
7 -25 43 -37 79 -12 37 -26 70 -31 73 -5 3 -17 52 -25 108 -15 95 -15 104 2
141 10 22 23 40 30 40 6 0 22 11 35 25 13 14 28 25 35 25 6 0 24 26 40 58 17
31 36 61 43 65 6 4 12 15 12 25 0 9 6 34 14 57 8 22 20 60 27 85 7 25 18 48
25 52 6 4 22 40 35 80 12 40 28 78 35 83 13 11 38 91 54 177 6 31 18 62 26 68
7 7 14 22 14 35 0 12 3 25 6 28 9 9 24 -2 24 -17z"/>
<path d="M3520 7310 c0 -5 4 -10 9 -10 6 0 13 5 16 10 3 6 -1 10 -9 10 -9 0
-16 -4 -16 -10z"/>
<path d="M7429 7260 c-4 -24 23 -205 32 -214 2 -2 13 -6 24 -8 18 -3 20 3 23
62 4 81 -3 110 -27 110 -12 0 -23 13 -33 38 -14 34 -15 35 -19 12z"/>
<path d="M7530 6991 c0 -11 8 -26 19 -33 10 -7 20 -22 22 -32 2 -11 10 -21 18
-24 9 -3 11 2 8 14 -3 11 -8 36 -12 57 -5 31 -10 37 -30 37 -18 0 -25 -5 -25
-19z"/>
<path d="M3858 6570 c-93 -7 -106 -15 -142 -80 -8 -14 -27 -35 -44 -47 -17
-12 -32 -35 -35 -52 -4 -17 -13 -31 -20 -31 -28 0 -50 -39 -52 -92 -1 -29 -6
-60 -9 -69 -13 -30 23 -29 73 1 26 17 55 30 64 30 9 0 20 7 25 16 14 25 76 34
237 34 171 0 314 -14 359 -35 41 -19 93 -29 255 -51 73 -9 138 -23 145 -29 6
-6 47 -19 91 -29 132 -30 154 -36 160 -46 13 -20 45 -9 60 20 9 17 20 30 25
30 12 0 14 97 3 102 -5 2 -19 24 -33 51 -13 26 -27 47 -31 47 -3 0 -19 11 -34
24 -22 19 -33 22 -46 15 -10 -5 -16 -16 -13 -24 5 -12 2 -12 -20 -2 -19 9 -24
17 -20 34 5 19 1 22 -33 27 -21 4 -56 11 -78 16 -22 6 -65 17 -96 25 -30 8
-69 21 -85 29 -16 8 -74 22 -129 31 -55 9 -118 23 -140 30 -83 29 -262 39
-437 25z m1090 -270 c3 -21 2 -22 -12 -11 -19 16 -21 44 -3 39 6 -3 14 -15 15
-28z m52 -61 c0 -5 -4 -9 -10 -9 -5 0 -10 7 -10 16 0 8 5 12 10 9 6 -3 10 -10
10 -16z"/>
<path d="M6415 6434 c-97 -12 -171 -30 -180 -41 -9 -12 -62 -26 -213 -57 -65
-13 -78 -24 -107 -83 -9 -18 -23 -33 -31 -33 -8 0 -17 -7 -20 -15 -9 -23 -23
-18 -17 6 5 17 2 20 -18 17 -21 -3 -24 -9 -27 -50 -3 -39 0 -47 17 -53 12 -3
26 -15 31 -26 9 -15 22 -19 69 -19 32 0 80 7 106 15 193 58 1121 68 1220 12
106 -59 102 -57 115 -42 20 24 6 125 -19 145 -21 16 -71 85 -71 98 0 4 -31 25
-70 46 -38 20 -70 41 -70 46 0 26 -75 33 -375 36 -170 1 -323 0 -340 -2z"/>
<path d="M4095 6120 c-98 -13 -108 -16 -145 -32 -19 -9 -61 -27 -92 -40 -32
-12 -58 -28 -58 -35 0 -6 -12 -21 -27 -32 -14 -12 -24 -24 -20 -27 6 -7 102
39 137 66 30 23 184 48 340 56 157 8 376 -27 399 -63 3 -6 22 -18 43 -26 20
-8 45 -24 56 -35 20 -20 73 -42 101 -42 20 0 -52 68 -85 81 -13 4 -24 15 -24
23 0 14 -18 23 -105 51 -27 9 -57 23 -65 30 -31 28 -314 43 -455 25z"/>
<path d="M4191 6035 c-46 -7 -87 -17 -90 -22 -3 -5 -45 -18 -93 -30 -61 -16
-101 -33 -135 -58 -71 -52 -73 -54 -73 -73 0 -14 7 -17 38 -14 26 3 42 -1 51
-12 8 -9 19 -16 26 -16 7 0 15 -9 18 -20 3 -11 21 -27 41 -35 20 -9 45 -24 56
-35 35 -35 163 -71 249 -71 42 1 92 1 111 1 19 0 54 0 77 0 23 0 89 11 147 25
58 14 118 25 134 25 15 0 34 6 41 13 7 6 29 12 49 12 40 0 54 22 29 46 -7 8
-16 22 -20 32 -3 9 -15 17 -25 17 -10 0 -30 12 -44 28 -14 15 -38 35 -54 44
-55 33 -69 43 -77 56 -11 17 -92 52 -119 52 -10 0 -26 6 -33 14 -13 13 -62 21
-175 31 -25 2 -83 -2 -129 -10z m-79 -141 c3 -49 9 -69 21 -76 9 -5 17 -17 17
-27 0 -9 14 -30 30 -46 17 -16 30 -35 30 -42 0 -21 -46 -15 -86 12 -20 14 -45
25 -55 25 -10 0 -33 15 -51 33 -19 18 -40 36 -48 39 -9 3 -22 17 -29 31 -16
31 -2 57 31 57 27 0 74 26 81 45 4 8 17 15 31 15 22 0 24 -4 28 -66z m489 26
c26 0 96 -41 109 -64 7 -14 21 -28 31 -31 22 -7 72 -72 65 -84 -3 -5 -41 -12
-83 -16 -43 -4 -81 -12 -84 -17 -7 -11 -134 -37 -186 -37 -42 -1 -42 12 2 52
68 63 85 95 85 162 0 72 6 83 32 55 10 -11 23 -20 29 -20z m-168 -21 c13 -21
2 -65 -19 -73 -9 -3 -28 0 -42 7 -36 16 -37 56 -2 74 30 16 50 13 63 -8z"/>
<path d="M6380 6011 c0 -4 -37 -11 -82 -14 -46 -3 -92 -8 -104 -11 -61 -13
-107 -31 -111 -43 -3 -8 -21 -20 -40 -28 -32 -13 -38 -35 -10 -35 17 0 123 44
139 58 22 18 118 36 130 24 12 -12 2 -32 -16 -32 -7 0 -40 -11 -75 -24 -59
-24 -75 -35 -142 -98 -16 -15 -37 -28 -47 -30 -9 -2 -21 -13 -27 -26 -5 -12
-18 -22 -27 -22 -10 0 -18 -3 -18 -7 0 -5 -3 -17 -6 -29 -5 -20 -1 -21 88 -28
91 -6 152 -21 179 -43 8 -6 57 -21 109 -33 52 -12 97 -26 101 -31 3 -5 61 -12
130 -16 102 -5 127 -3 139 9 8 8 46 23 84 33 37 10 87 31 110 47 22 15 46 28
52 28 6 0 23 9 37 21 23 17 32 19 64 10 21 -6 41 -7 46 -2 13 13 -9 49 -41 65
-15 8 -37 26 -49 40 -13 14 -29 26 -36 26 -7 0 -37 15 -66 34 -29 19 -84 42
-122 51 -44 11 -69 22 -69 31 0 8 9 14 20 14 11 0 20 -4 20 -10 0 -5 10 -10
23 -10 47 -1 229 -56 239 -73 5 -9 17 -17 26 -17 9 0 35 -16 57 -35 43 -37 50
-41 60 -25 5 9 -8 24 -70 78 -22 19 -91 52 -110 52 -6 0 -32 11 -56 23 -59 32
-75 35 -246 51 -82 8 -161 19 -176 25 -34 13 -107 15 -107 2z m-70 -181 c0
-98 41 -163 119 -185 41 -12 53 -40 21 -50 -26 -8 -121 13 -135 29 -5 7 -55
22 -110 35 -118 26 -167 43 -171 56 -4 11 74 71 87 68 5 -2 9 1 9 7 0 15 42
50 61 50 9 0 23 7 30 16 15 18 45 32 72 33 14 1 17 -8 17 -59z m536 -10 c48
-25 94 -67 94 -85 0 -29 -44 -60 -103 -75 -32 -7 -64 -21 -70 -31 -22 -31
-166 -54 -182 -29 -3 6 3 10 15 10 11 0 23 7 26 15 4 8 14 15 23 15 9 0 32 11
51 25 37 28 60 83 60 148 0 36 1 37 28 31 15 -4 41 -15 58 -24z m-203 8 c12
-7 25 -17 28 -22 8 -10 0 -46 -10 -46 -3 0 -16 -3 -27 -6 -14 -4 -30 2 -48 19
-32 30 -33 41 -3 55 29 14 33 14 60 0z m-183 -23 c0 -16 -27 -32 -37 -22 -3 4
-3 13 0 22 8 20 37 20 37 0z"/>
<path d="M4721 4596 c-26 -57 -28 -161 -3 -224 19 -46 67 -85 120 -96 48 -11
42 17 -8 37 -30 12 -44 25 -56 52 -8 20 -18 33 -23 31 -12 -8 -21 45 -21 125
0 49 4 72 16 84 11 11 13 20 7 26 -7 7 -17 -5 -32 -35z"/>
<path d="M6000 4487 c0 -72 -14 -127 -31 -127 -4 0 -14 -12 -21 -26 -7 -15
-29 -35 -47 -45 -35 -19 -58 -46 -47 -56 3 -3 21 -2 41 1 24 5 39 15 47 31 6
13 19 26 29 28 11 3 28 26 40 51 11 25 24 46 29 46 6 0 10 27 10 59 0 50 -4
64 -25 87 l-25 27 0 -76z"/>
<path d="M4970 4371 c-16 -4 -26 -15 -28 -29 -3 -22 -1 -23 46 -16 68 9 95 -8
228 -136 48 -47 114 -70 176 -63 29 3 64 14 77 25 13 10 28 18 33 18 6 0 23
12 38 28 95 91 118 110 142 116 15 3 33 13 42 21 17 17 36 20 36 5 0 -13 67
-13 75 0 8 13 -48 40 -85 40 -49 0 -120 -21 -120 -35 0 -8 -19 -24 -42 -37
-24 -13 -47 -33 -53 -45 -6 -15 -27 -26 -65 -37 -101 -29 -189 -16 -230 34
-14 16 -29 30 -35 30 -5 0 -30 18 -53 39 -55 48 -112 62 -182 42z"/>
<path d="M5064 4103 c-9 -14 -24 -17 -74 -16 -36 1 -72 -4 -84 -11 -13 -8 -47
-12 -86 -10 -60 2 -67 0 -88 -24 l-22 -27 -6 23 c-6 19 -11 22 -35 17 -39 -9
-84 -32 -100 -52 -13 -15 -11 -16 16 -9 30 7 30 7 8 -9 -13 -9 -23 -23 -23
-31 0 -21 -21 -17 -27 6 -7 27 -29 25 -49 -4 -9 -15 -21 -23 -30 -19 -18 7
-64 -23 -64 -41 0 -8 -20 -24 -44 -36 -24 -11 -52 -32 -60 -45 -27 -41 -66
-28 -66 20 0 8 7 11 19 8 12 -3 20 2 23 14 3 10 9 26 13 36 5 12 3 17 -8 17
-8 0 -17 -7 -21 -15 -3 -9 -18 -15 -35 -15 -47 0 -108 -36 -120 -71 -6 -17
-19 -33 -30 -36 -23 -6 -45 -62 -43 -110 1 -33 27 -83 43 -83 14 0 11 20 -6
36 -19 19 -20 80 -1 87 10 4 16 -7 21 -39 5 -35 12 -48 31 -56 15 -7 28 -23
31 -40 7 -36 30 -36 45 0 21 47 57 77 88 74 23 -3 32 2 44 26 16 32 34 42 72
42 27 0 27 0 14 -34 -8 -23 -5 -28 36 -56 25 -16 51 -30 59 -30 7 0 20 -7 28
-15 16 -15 115 -39 207 -50 30 -3 60 -11 67 -17 7 -5 61 -19 120 -29 231 -42
378 -56 468 -46 39 4 210 12 380 17 304 9 418 18 443 33 19 12 14 34 -8 40
-27 7 -103 -4 -111 -15 -13 -20 -154 -28 -303 -18 -111 8 -169 8 -222 -1 -106
-17 -449 -8 -489 13 -16 9 -66 21 -110 28 -119 17 -229 40 -235 49 -3 4 -31
11 -63 15 -33 3 -92 15 -133 26 -40 11 -76 20 -79 20 -10 0 -5 69 7 95 12 26
36 33 54 15 7 -7 16 -4 29 10 10 11 24 20 31 20 8 0 26 14 41 30 27 31 72 40
102 21 8 -5 27 -5 45 0 17 6 89 11 160 13 94 3 132 8 143 18 7 8 15 41 18 74
5 90 15 126 36 131 23 6 25 23 4 23 -8 0 -15 7 -15 15 0 21 -43 19 -56 -2z
m-44 -53 c0 -20 -24 -60 -36 -60 -7 0 -16 -16 -20 -36 -4 -19 -13 -38 -20 -41
-8 -3 -14 -11 -14 -18 0 -15 -19 -24 -37 -17 -23 8 -14 29 18 42 35 15 49 44
42 83 -8 41 3 57 37 57 16 0 30 -4 30 -10z m-800 -224 c0 -16 -28 -42 -36 -33
-7 6 18 47 28 47 5 0 8 -6 8 -14z m220 -10 c0 -3 -4 -8 -10 -11 -5 -3 -10 -1
-10 4 0 6 5 11 10 11 6 0 10 -2 10 -4z m-300 -69 c0 -7 -9 -18 -21 -25 -18
-12 -20 -11 -17 5 2 10 10 17 16 16 7 -2 12 2 12 7 0 6 2 10 5 10 3 0 5 -6 5
-13z"/>
<path d="M5561 4097 c-6 -6 -35 -11 -63 -12 -88 -2 -232 -17 -243 -26 -6 -4
-12 -25 -13 -45 -3 -43 -27 -94 -45 -94 -7 0 -18 -14 -26 -32 -13 -28 -12 -32
4 -45 11 -7 27 -13 37 -13 10 0 27 -9 38 -20 20 -20 46 -18 65 6 6 7 21 14 35
16 25 3 27 9 17 61 -2 10 -9 22 -16 27 -14 8 -6 50 9 50 5 0 7 -7 3 -15 -3
-10 -1 -15 7 -13 8 2 21 -18 31 -46 25 -69 29 -71 94 -57 43 10 63 10 92 0 33
-11 37 -10 53 11 21 28 54 35 70 15 7 -8 23 -15 36 -15 15 0 29 -10 41 -30 13
-23 25 -30 48 -30 16 0 41 -6 55 -13 16 -8 38 -10 59 -6 19 4 40 5 48 2 14 -6
26 -41 21 -62 -2 -7 5 -18 15 -24 15 -10 21 -9 31 5 12 16 14 16 41 -2 16 -10
33 -26 38 -35 5 -9 24 -23 43 -31 21 -9 34 -21 34 -33 0 -10 6 -24 14 -30 11
-9 15 -5 19 19 4 16 10 30 15 30 10 0 42 -70 51 -110 8 -33 51 -42 51 -10 0
12 4 18 10 15 6 -4 8 -11 5 -16 -4 -5 5 -20 19 -34 29 -29 37 -56 19 -70 -6
-5 -15 -22 -18 -36 -6 -23 -3 -27 21 -32 21 -4 35 2 57 23 28 26 29 29 35 155
4 107 3 130 -10 139 -8 6 -18 20 -21 31 -4 11 -23 29 -44 40 -44 24 -53 44
-24 52 21 5 30 23 12 23 -5 0 -17 8 -26 17 -16 16 -18 16 -27 0 -13 -25 -37
-21 -48 8 -5 14 -13 25 -17 26 -62 6 -123 6 -123 -2 0 -5 3 -9 8 -9 15 0 54
-86 50 -110 -3 -21 -7 -17 -23 28 -15 40 -25 52 -40 52 -12 0 -25 -4 -31 -9
-16 -17 -46 16 -64 70 -18 58 -36 73 -43 37 -3 -21 -5 -20 -21 12 -31 63 -43
81 -65 96 -40 28 -37 -11 7 -99 2 -5 -8 4 -22 18 -14 14 -26 32 -26 40 0 27
-13 45 -33 45 -11 0 -28 6 -36 14 -9 7 -28 16 -43 20 -25 6 -28 4 -28 -20 0
-22 -2 -25 -15 -14 -8 7 -15 21 -15 32 0 10 -4 17 -9 14 -5 -3 -16 5 -25 19
-16 24 -59 35 -70 17 -6 -11 20 -43 29 -34 4 4 6 0 3 -8 -2 -8 -15 -17 -28
-18 -27 -4 -50 20 -50 54 0 25 -22 38 -39 21z m237 -142 c-3 -3 -9 2 -12 12
-6 14 -5 15 5 6 7 -7 10 -15 7 -18z m132 -107 c0 -6 -11 -7 -27 -3 -35 8 -35
9 -27 28 5 15 8 15 30 0 13 -8 24 -20 24 -25z m35 -18 c3 -5 -1 -10 -9 -10 -9
0 -16 5 -16 10 0 6 4 10 9 10 6 0 13 -4 16 -10z m425 -81 c0 -5 -4 -9 -10 -9
-5 0 -10 7 -10 16 0 8 5 12 10 9 6 -3 10 -10 10 -16z m-70 -14 c0 -14 13 -20
35 -15 26 5 29 4 30 -5 4 -34 20 -83 36 -105 10 -14 21 -43 25 -64 l7 -39 -32
22 c-17 12 -31 29 -31 36 0 35 -24 65 -51 65 -15 0 -29 7 -33 16 -10 26 -7
104 4 104 6 0 10 -7 10 -15z m-110 -80 c0 -36 -34 -20 -51 23 -8 20 -16 41
-18 46 -2 5 13 -3 33 -19 23 -17 36 -36 36 -50z"/>
<path d="M5180 4043 c-37 -44 -47 -68 -39 -91 13 -33 43 -25 47 13 2 16 11 34
19 40 16 12 15 46 -2 52 -6 2 -17 -5 -25 -14z"/>
<path d="M5201 3964 c0 -11 3 -14 6 -6 3 7 2 16 -1 19 -3 4 -6 -2 -5 -13z"/>
<path d="M6133 3929 c-7 -7 -8 -21 -3 -40 14 -46 19 -49 45 -23 28 28 30 34
14 34 -6 0 -18 9 -27 21 -13 15 -20 17 -29 8z"/>
<path d="M4667 3768 c-12 -9 -14 -17 -7 -28 8 -13 11 -12 24 5 26 34 16 47
-17 23z"/>
<path d="M4843 3004 c-13 -34 3 -59 50 -83 44 -21 52 -22 75 -10 15 8 32 21
37 29 7 11 11 1 15 -40 l5 -55 44 -3 c25 -2 52 -11 63 -22 26 -24 193 -38 256
-21 23 6 51 11 62 11 10 0 36 11 56 25 28 19 45 24 65 20 36 -8 65 8 73 40 4
14 10 25 15 25 4 0 3 16 -3 35 l-11 35 -63 0 c-35 0 -73 -5 -84 -11 -14 -8
-23 -8 -31 0 -14 14 -73 14 -151 1 -48 -8 -63 -7 -75 4 -15 13 -53 17 -334 30
-41 2 -60 -1 -64 -10z"/>
<path d="M5725 2480 c3 -5 10 -10 16 -10 5 0 9 5 9 10 0 6 -7 10 -16 10 -8 0
-12 -4 -9 -10z"/>
<path d="M5280 2451 c0 -12 5 -21 10 -21 6 0 10 6 10 14 0 8 -4 18 -10 21 -5
3 -10 -3 -10 -14z"/>
<path d="M4925 2449 c-4 -6 -5 -13 -2 -16 7 -7 27 6 27 18 0 12 -17 12 -25 -2z"/>
<path d="M3117 5698 c5 -97 20 -148 46 -148 18 0 19 6 15 81 -3 69 -6 84 -26
99 -12 10 -22 23 -22 29 0 6 -4 11 -8 11 -4 0 -6 -33 -5 -72z"/>
<path d="M10533 10563 c14 -16 33 -44 41 -63 l15 -35 1 63 0 62 -42 0 -42 0
27 -27z"/>
<path d="M4716 10522 c-10 -9 -6 -62 4 -62 6 0 10 5 10 10 0 6 7 10 15 10 22
0 18 37 -4 43 -11 3 -22 2 -25 -1z"/>
<path d="M4080 10290 c0 -11 -4 -20 -10 -20 -5 0 -10 -4 -10 -9 0 -5 8 -8 18
-7 19 3 31 56 13 56 -6 0 -11 -9 -11 -20z"/>
<path d="M3656 10071 c-3 -4 0 -16 8 -26 16 -23 56 -12 56 16 0 14 -7 19 -29
19 -17 0 -32 -4 -35 -9z"/>
<path d="M3610 9940 c-33 -10 -56 -24 -58 -34 -2 -9 -9 -16 -16 -16 -21 0 -56
-44 -47 -58 13 -21 91 5 102 35 5 13 15 23 24 23 8 0 15 4 15 9 0 5 15 12 34
15 35 7 61 28 49 39 -10 11 -43 6 -103 -13z"/>
</g>
</svg>
